:SAMPLES-PER-SECOND 30
:FRAME-RANGE 1-668
:FULLY-SPECIFIED
:DEGREES
543
root  3.30695 40.1656 -13.368 -175.428 -72.6991 176.343
RightUpLeg  2.53134 -9.93122 -6.43455
RightLeg  6.93355 -17.5821 1.22914
RightFoot  -7.85957 -0.257017 6.68835
RightToes  -1.33073e-015 0 -3.6325e-017
Spine  5.91487 3.53973 4.88819
Spine1  1.67522 3.61903 1.67492
HEad  5.1049 50.9517 -5.50951
LeftShoulder1  0.829908 0.244605 -18.9034
LeftArm  -54.9704 -17.1605 8.13329
LeftForeArm  0.185038 -29.632 -6.43413
LeftHand  0.503863 -4.07241 -5.9098
RightShoulder  8.54686 13.9211 42.7467
RightArm  -29.591 6.44574 -3.80244
RightForeArm  28.3515 9.09441 7.91581
RightHand  -0.706266 2.99266 -9.99286
LeftUpLeg  -6.73426 3.2586 4.47642
LeftLeg  4.66787 -18.0123 -0.821261
LeftFoot  -0.0117685 0.887673 -8.93691
LeftToes  -2.73175e-012 1.00346e-010 -4.28452e-011
544
root  3.35698 40.1588 -13.5881 -176.316 -72.6578 177.463
RightUpLeg  2.32057 -9.61887 -5.70598
RightLeg  6.98338 -17.9108 1.37412
RightFoot  -7.98199 -0.237572 6.24287
RightToes  -1.33073e-015 0 -3.6325e-017
Spine  5.71932 3.28328 3.83433
Spine1  2.02769 3.43414 1.04721
HEad  3.2934 51.2111 -4.83762
LeftShoulder1  0.884693 0.0536009 -19.097
LeftArm  -55.5297 -19.7491 10.0761
LeftForeArm  4.14355 -30.0643 -6.32586
LeftHand  0.28654 -3.91205 -3.31363
RightShoulder  9.07316 14.8071 43.201
RightArm  -29.4033 6.8399 -2.81324
RightForeArm  29.0763 8.55833 8.00115
RightHand  -0.714171 3.00778 -10.0845
LeftUpLeg  -6.92027 3.5402 5.13607
LeftLeg  4.69892 -18.2621 -0.733342
LeftFoot  -0.0769373 0.913878 -9.24919
LeftToes  -2.73175e-012 1.00346e-010 -4.28452e-011
545
root  3.39143 40.168 -13.7783 -177.361 -72.285 178.798
RightUpLeg  2.25803 -9.19558 -4.94865
RightLeg  6.5059 -17.9981 1.61936
RightFoot  -7.83472 -0.235244 5.93786
RightToes  -1.33073e-015 0 -3.6325e-017
Spine  5.43455 3.20003 3.45724
Spine1  2.35401 3.54573 -0.00733949
HEad  1.69645 51.3446 -4.44397
LeftShoulder1  0.957671 -0.154108 -19.6778
LeftArm  -56.2327 -22.7718 11.9168
LeftForeArm  7.34556 -30.8385 -6.34063
LeftHand  0.0845954 -3.72144 -0.821605
RightShoulder  9.49686 15.3874 43.8594
RightArm  -28.745 6.88619 -2.21945
RightForeArm  28.562 8.84517 8.12183
RightHand  -0.726744 2.95206 -10.3219
LeftUpLeg  -7.02912 3.89118 5.81513
LeftLeg  4.61937 -18.2102 -0.591967
LeftFoot  -0.077323 0.936171 -9.47434
LeftToes  -2.73175e-012 1.00346e-010 -4.28452e-011
546
root  3.40631 40.1771 -13.9519 -178.323 -71.9608 179.845
RightUpLeg  2.58401 -8.82048 -4.32797
RightLeg  5.76749 -18.1586 1.88801
RightFoot  -7.68495 -0.236617 5.76962
RightToes  -1.33073e-015 0 -3.6325e-017
Spine  4.99641 3.10195 3.40107
Spine1  3.00464 3.70809 -1.22322
HEad  0.965884 51.6636 -3.80297
LeftShoulder1  1.05369 -0.418483 -20.4119
LeftArm  -57.4168 -25.9933 13.1801
LeftForeArm  11.0234 -31.2818 -6.24373
LeftHand  -0.125266 -3.37509 1.90525
RightShoulder  9.88964 15.9027 44.4858
RightArm  -28.1808 6.69694 -1.7721
RightForeArm  27.8141 9.20336 8.19536
RightHand  -0.734743 2.93868 -10.4484
LeftUpLeg  -6.86788 4.23255 6.40268
LeftLeg  4.45194 -18.2338 -0.452019
LeftFoot  -0.0497377 0.944196 -9.53354
LeftToes  -2.73175e-012 1.00346e-010 -4.28452e-011
547
root  3.43135 40.1743 -14.1005 -178.702 -71.6219 -179.735
RightUpLeg  2.70129 -8.5276 -3.87817
RightLeg  5.39976 -18.1515 1.95225
RightFoot  -7.65531 -0.225658 5.38999
RightToes  -1.33073e-015 0 -3.6325e-017
Spine  4.69868 2.92865 3.14476
Spine1  3.4505 3.73915 -2.16215
HEad  0.347893 52.1754 -3.43995
LeftShoulder1  1.13634 -0.638109 -21.0236
LeftArm  -56.9674 -28.6195 13.4275
LeftForeArm  12.2606 -31.9503 -6.34136
LeftHand  -0.269258 -2.76906 4.05491
RightShoulder  10.1707 16.313 44.8123
RightArm  -27.3557 6.68401 -1.12981
RightForeArm  27.29 9.27548 8.36753
RightHand  -0.735967 2.90867 -10.5011
LeftUpLeg  -6.71376 4.55401 6.82716
LeftLeg  4.29609 -18.2653 -0.433001
LeftFoot  -0.0195885 0.964045 -9.70902
LeftToes  -2.73175e-012 1.00346e-010 -4.28452e-011
548
root  3.46603 40.1728 -14.2265 -178.877 -71.3009 -179.526
RightUpLeg  2.73485 -8.25749 -3.53031
RightLeg  5.18514 -18.1613 1.95308
RightFoot  -7.69761 -0.215934 5.13869
RightToes  -1.33073e-015 0 -3.6325e-017
Spine  4.55538 2.64378 2.85855
Spine1  3.65254 3.61152 -2.9248
HEad  -0.221983 53.311 -3.3941
LeftShoulder1  1.23667 -0.897956 -21.728
LeftArm  -56.3225 -30.8344 13.0278
LeftForeArm  12.9092 -31.6857 -6.23737
LeftHand  -0.339561 -2.40477 5.26628
RightShoulder  10.3576 16.6321 44.9129
RightArm  -26.7223 6.89117 -0.383002
RightForeArm  27.4473 8.9265 8.56402
RightHand  -0.721902 2.95281 -10.2541
LeftUpLeg  -6.55825 4.85356 7.1471
LeftLeg  4.08884 -18.2599 -0.395141
LeftFoot  0.0212799 0.989409 -9.92992
LeftToes  -2.73175e-012 1.00346e-010 -4.28452e-011
549
root  3.50708 40.1705 -14.3242 -178.938 -70.9627 -179.409
RightUpLeg  2.62827 -8.05739 -3.26503
RightLeg  5.16874 -18.1641 1.90666
RightFoot  -7.78182 -0.211265 5.09194
RightToes  -1.33073e-015 0 -3.6325e-017
Spine  4.3972 2.29729 2.70143
Spine1  3.94591 3.41477 -3.63042
HEad  -0.965734 54.5581 -3.67077
LeftShoulder1  1.34454 -1.17996 -22.3793
LeftArm  -54.9269 -32.2774 11.8642
LeftForeArm  13.4147 -30.8076 -5.99026
LeftHand  -0.430059 -2.04957 6.90492
RightShoulder  10.4925 16.8525 45.0063
RightArm  -25.8323 7.1878 0.305507
RightForeArm  27.4675 8.62957 8.81696
RightHand  -0.714758 3.01152 -10.0884
LeftUpLeg  -6.44584 5.16159 7.41757
LeftLeg  3.87701 -18.2321 -0.404491
LeftFoot  0.0839853 1.01123 -10.0958
LeftToes  -2.73175e-012 1.00346e-010 -4.28452e-011
550
root  3.53418 40.1693 -14.426 -179.631 -70.8362 -178.808
RightUpLeg  2.88721 -7.77056 -2.84558
RightLeg  4.87478 -18.3984 1.96285
RightFoot  -7.76703 -0.203673 4.92673
RightToes  -1.33073e-015 0 -3.6325e-017
Spine  4.2768 1.7795 2.4262
Spine1  4.49345 2.93428 -3.80818
HEad  -2.29918 55.9085 -4.69404
LeftShoulder1  1.42416 -1.33265 -23.1626
LeftArm  -52.0319 -32.6981 10.1325
LeftForeArm  13.2324 -30.0165 -5.80773
LeftHand  -0.458452 -1.89677 7.49089
RightShoulder  10.6019 17.0837 44.9599
RightArm  -24.9272 7.54366 0.967476
RightForeArm  27.6506 8.33959 9.06579
RightHand  -0.712416 3.03393 -10.031
LeftUpLeg  -6.22838 5.51491 7.84667
LeftLeg  3.79272 -18.5119 -0.438116
LeftFoot  0.0432797 1.02289 -10.2458
LeftToes  -2.73175e-012 1.00346e-010 -4.28452e-011
551
root  3.59045 40.1726 -14.4654 -178.983 -70.0355 -179.135
RightUpLeg  2.14059 -7.74036 -2.82951
RightLeg  5.29299 -17.7274 1.85384
RightFoot  -7.83088 -0.200387 4.79817
RightToes  -1.33073e-015 0 -3.6325e-017
Spine  3.99516 1.48704 2.24258
Spine1  4.76046 2.73339 -4.2641
HEad  -3.93998 57.2189 -6.17559
LeftShoulder1  1.514 -1.4494 -24.3412
LeftArm  -47.0461 -32.5689 8.38869
LeftForeArm  12.1542 -28.8632 -5.59233
LeftHand  -0.531205 -1.00527 9.78222
RightShoulder  10.6169 17.1005 44.9875
RightArm  -24.8005 8.07607 1.58969
RightForeArm  28.3997 7.9033 9.15561
RightHand  -0.716295 3.12463 -9.98282
LeftUpLeg  -6.30228 5.66796 7.88435
LeftLeg  3.4273 -17.7502 -0.35757
LeftFoot  0.260006 1.05179 -10.3494
LeftToes  -2.73175e-012 1.00346e-010 -4.28452e-011
552
root  3.63439 40.1771 -14.5185 -178.987 -69.23 -179.037
RightUpLeg  1.82179 -7.60439 -2.68163
RightLeg  5.45323 -17.0985 1.82582
RightFoot  -7.80892 -0.196208 4.63803
RightToes  -1.33073e-015 0 -3.6325e-017
Spine  3.8869 1.16892 2.18026
Spine1  5.14334 2.51016 -4.6644
HEad  -5.7724 58.4016 -7.59843
LeftShoulder1  1.63101 -1.61195 -25.7173
LeftArm  -40.3274 -31.9688 6.38366
LeftForeArm  11.0417 -27.6412 -5.36801
LeftHand  -0.585607 -0.234803 12.1758
RightShoulder  10.6841 17.1472 45.1775
RightArm  -24.1072 8.44664 1.96555
RightForeArm  27.8121 7.6139 9.42218
RightHand  -0.717201 3.00671 -10.1274
LeftUpLeg  -6.10284 5.98274 8.13422
LeftLeg  3.12497 -17.2956 -0.341495
LeftFoot  0.386975 1.06923 -10.4131
LeftToes  -2.73175e-012 1.00346e-010 -4.28452e-011
553
root  3.68761 40.181 -14.5587 -179.116 -68.1904 -178.71
RightUpLeg  1.3542 -7.34501 -2.39303
RightLeg  5.59203 -16.4108 1.76097
RightFoot  -7.71228 -0.189981 4.33918
RightToes  -1.33073e-015 0 -3.6325e-017
Spine  3.83885 0.887448 2.2665
Spine1  5.41687 2.35655 -5.20517
HEad  -7.81558 59.5213 -9.01557
LeftShoulder1  1.73629 -1.74264 -26.976
LeftArm  -33.213 -30.8323 4.0337
LeftForeArm  9.86785 -26.7756 -5.23323
LeftHand  -0.589986 0.295902 13.4952
RightShoulder  10.691 17.158 45.1829
RightArm  -23.3553 8.71966 2.56055
RightForeArm  27.429 7.24783 9.71013
RightHand  -0.707924 3.07535 -9.92346
LeftUpLeg  -6.02601 6.32711 8.46937
LeftLeg  2.98633 -16.5982 -0.341789
LeftFoot  0.336306 1.09328 -10.689
LeftToes  -2.73175e-012 1.00346e-010 -4.28452e-011
554
root  3.74294 40.1815 -14.5969 -179.374 -67.1057 -178.308
RightUpLeg  1.02766 -7.04975 -2.06887
RightLeg  5.58005 -15.712 1.74051
RightFoot  -7.57777 -0.188328 4.16167
RightToes  -1.33073e-015 0 -3.6325e-017
Spine  3.8871 0.632045 2.18342
Spine1  5.67363 2.16524 -5.47578
HEad  -9.52221 60.6341 -10.1876
LeftShoulder1  1.84373 -1.8581 -28.3058
LeftArm  -26.9725 -29.6765 1.79969
LeftForeArm  7.64589 -25.3288 -5.02643
LeftHand  -0.614182 0.00869721 13.3202
RightShoulder  10.7168 17.1894 45.2245
RightArm  -23.5038 9.03934 3.06112
RightForeArm  28.3368 6.21768 9.79511
RightHand  -0.707982 3.11593 -9.87966
LeftUpLeg  -5.94896 6.66222 8.83792
LeftLeg  3.01474 -15.8696 -0.36313
LeftFoot  0.293794 1.08986 -10.6931
LeftToes  -2.73175e-012 1.00346e-010 -4.28452e-011
